<svg xmlns="http://www.w3.org/2000/svg" width="375" viewBox="0 0 375 375" height="375" version="1.0"><defs><clipPath id="a"><path d="M 37.5 37.5 L 337.5 37.5 L 337.5 337.5 L 37.5 337.5 Z M 37.5 37.5"/></clipPath></defs><g clip-path="url(#a)"><path d="M 187.5 37.5 C 104.8125 37.5 37.5 104.8125 37.5 187.5 C 37.5 238.875 63.375 284.25 103.125 311.25 C 127.125 327.75 156.1875 337.5 187.5 337.5 C 218.8125 337.5 247.875 327.75 271.875 311.25 C 311.625 284.25 337.5 238.875 337.5 187.5 C 337.5 104.8125 270.1875 37.5 187.5 37.5 Z M 271.875 287.585938 L 271.875 253.125 C 271.875 226.875 234.75 206.25 187.5 206.25 C 140.25 206.25 103.125 226.875 103.125 253.125 L 103.125 287.605469 C 73.632812 262.855469 56.25 226.386719 56.25 187.5 C 56.25 115.125 115.125 56.25 187.5 56.25 C 259.875 56.25 318.75 115.125 318.75 187.5 C 318.75 226.367188 301.40625 262.800781 271.875 287.585938 Z M 271.875 287.585938"/></g><path d="M 234.375 140.625 C 234.375 142.160156 234.300781 143.691406 234.148438 145.21875 C 234 146.746094 233.773438 148.265625 233.472656 149.769531 C 233.175781 151.277344 232.800781 152.761719 232.355469 154.230469 C 231.910156 155.703125 231.394531 157.144531 230.808594 158.5625 C 230.21875 159.980469 229.5625 161.367188 228.839844 162.722656 C 228.117188 164.074219 227.328125 165.390625 226.476562 166.667969 C 225.621094 167.945312 224.707031 169.175781 223.734375 170.363281 C 222.761719 171.550781 221.730469 172.683594 220.644531 173.769531 C 219.558594 174.855469 218.425781 175.886719 217.238281 176.859375 C 216.050781 177.832031 214.820312 178.746094 213.542969 179.601562 C 212.265625 180.453125 210.949219 181.242188 209.597656 181.964844 C 208.242188 182.6875 206.855469 183.34375 205.4375 183.933594 C 204.019531 184.519531 202.578125 185.035156 201.105469 185.480469 C 199.636719 185.925781 198.152344 186.300781 196.644531 186.597656 C 195.140625 186.898438 193.621094 187.125 192.09375 187.273438 C 190.566406 187.425781 189.035156 187.5 187.5 187.5 C 185.964844 187.5 184.433594 187.425781 182.90625 187.273438 C 181.378906 187.125 179.859375 186.898438 178.355469 186.597656 C 176.847656 186.300781 175.363281 185.925781 173.894531 185.480469 C 172.421875 185.035156 170.980469 184.519531 169.5625 183.933594 C 168.144531 183.34375 166.757812 182.6875 165.402344 181.964844 C 164.050781 181.242188 162.734375 180.453125 161.457031 179.601562 C 160.179688 178.746094 158.949219 177.832031 157.761719 176.859375 C 156.574219 175.886719 155.441406 174.855469 154.355469 173.769531 C 153.269531 172.683594 152.238281 171.550781 151.265625 170.363281 C 150.292969 169.175781 149.378906 167.945312 148.523438 166.667969 C 147.671875 165.390625 146.882812 164.074219 146.160156 162.722656 C 145.4375 161.367188 144.78125 159.980469 144.191406 158.5625 C 143.605469 157.144531 143.089844 155.703125 142.644531 154.230469 C 142.199219 152.761719 141.824219 151.277344 141.527344 149.769531 C 141.226562 148.265625 141 146.746094 140.851562 145.21875 C 140.699219 143.691406 140.625 142.160156 140.625 140.625 C 140.625 139.089844 140.699219 137.558594 140.851562 136.03125 C 141 134.503906 141.226562 132.984375 141.527344 131.480469 C 141.824219 129.972656 142.199219 128.488281 142.644531 127.019531 C 143.089844 125.546875 143.605469 124.105469 144.191406 122.6875 C 144.78125 121.269531 145.4375 119.882812 146.160156 118.527344 C 146.882812 117.175781 147.671875 115.859375 148.523438 114.582031 C 149.378906 113.304688 150.292969 112.074219 151.265625 110.886719 C 152.238281 109.699219 153.269531 108.566406 154.355469 107.480469 C 155.441406 106.394531 156.574219 105.363281 157.761719 104.390625 C 158.949219 103.417969 160.179688 102.503906 161.457031 101.648438 C 162.734375 100.796875 164.050781 100.007812 165.402344 99.285156 C 166.757812 98.5625 168.144531 97.90625 169.5625 97.316406 C 170.980469 96.730469 172.421875 96.214844 173.894531 95.769531 C 175.363281 95.324219 176.847656 94.949219 178.355469 94.652344 C 179.859375 94.351562 181.378906 94.125 182.90625 93.976562 C 184.433594 93.824219 185.964844 93.75 187.5 93.75 C 189.035156 93.75 190.566406 93.824219 192.09375 93.976562 C 193.621094 94.125 195.140625 94.351562 196.644531 94.652344 C 198.152344 94.949219 199.636719 95.324219 201.105469 95.769531 C 202.578125 96.214844 204.019531 96.730469 205.4375 97.316406 C 206.855469 97.90625 208.242188 98.5625 209.597656 99.285156 C 210.949219 100.007812 212.265625 100.796875 213.542969 101.648438 C 214.820312 102.503906 216.050781 103.417969 217.238281 104.390625 C 218.425781 105.363281 219.558594 106.394531 220.644531 107.480469 C 221.730469 108.566406 222.761719 109.699219 223.734375 110.886719 C 224.707031 112.074219 225.621094 113.304688 226.476562 114.582031 C 227.328125 115.859375 228.117188 117.175781 228.839844 118.527344 C 229.5625 119.882812 230.21875 121.269531 230.808594 122.6875 C 231.394531 124.105469 231.910156 125.546875 232.355469 127.019531 C 232.800781 128.488281 233.175781 129.972656 233.472656 131.480469 C 233.773438 132.984375 234 134.503906 234.148438 136.03125 C 234.300781 137.558594 234.375 139.089844 234.375 140.625 Z M 234.375 140.625"/></svg>